<svg width="1024" height="1024" viewBox="0 0 1024 1024" fill="none" xmlns="http://www.w3.org/2000/svg">
<g clip-path="url(#clip0_511_918)">
<g clip-path="url(#clip1_511_918)">
<path d="M0 0H1024V1024H0V0Z" fill="white"/>
</g>
<path d="M544.777 678.329C556.326 680.379 577.747 668.97 605.305 642.066C608.489 638.958 613.043 634.532 617.064 629.466C621.086 624.401 637.958 610.914 631.663 630.927C628.729 640.253 623.588 642.892 611.784 666.746C610.404 669.536 609.953 670.822 608.999 672.452C605.024 679.24 606.849 684.411 640.773 664.156C658.626 650.245 674.935 640.294 694.193 606.906C703.006 591.626 690.969 555.453 685.518 536.092C680.742 519.128 682.077 523.285 679.712 510.69C677.16 499.702 686.029 490.193 693.591 517.376C697.754 532.342 695.893 530.804 703.231 545.658C706.726 552.733 709.369 555.989 719.372 535.317C724.493 524.734 729.835 521.09 729.857 496.855C729.86 494.478 728.744 489.681 728.838 487.449C729.188 479.228 734.314 474.268 736.7 499.423C738.056 513.718 743.204 551.337 732.312 575.457C727.323 586.507 725.428 615.538 751.35 588.279C758.238 581.036 775.972 544.978 779.04 530.077C780.074 525.053 788.34 490.94 787.147 471.002C786.451 466.957 785.988 463.437 785.597 462.051C782.895 452.453 787.085 440.237 794.512 454.913C795.487 456.84 796.356 458.936 797.041 462.511C798.287 472.222 796.427 481.805 797.041 496.855C797.623 500.674 791.376 545.561 809.85 489.425C815.518 472.199 825.884 440.831 827.952 428.573C829.705 418.18 832.721 405.605 834.414 390.775C834.988 386.11 834.627 383.574 834.406 380.628C833.971 374.842 833.721 369.993 832.315 366.912C826.38 353.91 836.218 356.946 838.33 364.901C840.183 371.879 844.472 395.236 844.188 401.52C844.038 407.754 843.037 415.21 842.622 424.7C842.15 435.459 841.281 447.95 838.192 460.351C833.316 479.927 831.844 497.059 825.688 515.43C815.523 545.762 801.2 573.062 801.198 573.064C768.039 621.815 807.637 582.109 809.954 578.201C819.972 561.302 818.035 565.038 830.428 543.272C839.235 527.803 843.949 538.903 843.903 541.573C844.1 544.841 842.93 546.979 842.64 549.878C829.032 589.724 823.361 593.22 802.534 615.717C782.793 637.041 744.132 643.745 729.522 646.928C680.079 682.256 674.71 682.441 638.883 698.554C616.76 706.325 592.135 714.657 563.396 718.872C544.499 718.872 507.562 732.444 495.873 745.595C470.707 733.571 455.355 719.933 439.756 706.402C465.816 681.227 525.926 674.983 544.777 678.329Z" fill="#CC0D0B"/>
<path d="M805.195 319.452C799.976 311.617 802.909 308.57 810.499 303.917C812.66 302.592 816.048 299.956 818.093 299.424C823.233 298.09 826.377 300.938 827.906 304.348C830.044 309.116 830.133 314.877 828.405 332.652C827.903 340.696 822.51 344.48 814.691 333.867C810.792 328.576 810.414 327.287 805.195 319.452Z" fill="#CC0D0B"/>
<path d="M790.778 189.572C781.895 190.336 779.425 204.573 777.031 212.493C774.455 221.015 772.973 240.634 774.607 253.855C775.054 257.469 774.337 262.77 779.087 266.896C774.663 274.208 773.861 273.601 770.588 278.249C768.186 281.658 765.418 303.598 775.467 315.284C777.945 318.167 782.858 322.129 788.415 308.104C790.282 303.392 790.959 299.433 794.736 296.782C799.259 293.607 806.866 292.171 807.9 292.026C813.057 291.301 816.993 288.702 824.039 290.829C828.211 292.089 833.452 295.422 840.762 300.648C846.892 302.659 855.711 311.254 853.711 286.902C852.71 274.717 847.257 269.005 843.125 265.331C840.425 262.929 835.867 259.081 829.614 257.392C832.077 252.646 833.042 252.62 830.974 245.417C830.045 242.178 827.152 235.579 825.819 232.775C823.826 228.581 819.364 213.277 804.371 197.642C801.784 194.944 797.711 188.976 790.778 189.572ZM798.897 232.815C802.251 232.341 806.738 234.286 807.12 238.328C807.502 242.369 806.304 246.771 801.6 247.385C796.897 248 794.045 244.562 793.611 240.867C793.177 237.172 795.543 233.289 798.897 232.815Z" fill="#CC0D0B"/>
<path d="M313.745 512C308.556 475.922 303.944 389.288 335.604 309.814C351.515 269.873 367.835 233.538 389.469 199.403C429.587 136.107 461.214 106.478 485.436 87.4744C471.449 107.086 421.817 150.693 370.888 257.791C343.464 315.46 336.64 344.595 325.086 436.953C324.01 526.334 346.415 651.027 478.184 733.532C639.387 818.222 794.37 763.022 793.608 766.825C788.985 789.916 773.675 806.254 646.285 803.787C596.625 802.826 529.958 784.636 472.805 753.537C447.497 739.766 420.8 716.548 398.579 693.969C341.713 636.185 319.489 551.943 313.745 512Z" fill="black"/>
<path d="M313.988 786.716C310.676 772.594 306.573 748.793 310.03 728.717C311.717 718.917 314.35 707.709 319.892 695.297C321.931 690.73 336.517 659.301 342.583 650.558C343.659 649.007 363.447 614.402 377.306 594.059C378.844 591.142 404.405 545.179 406.082 534.52C407.92 522.836 410.886 493.289 397.229 474.068C396.469 472.999 385.41 465.324 369.319 461.742C355.773 460.368 341.19 460.044 332.744 460.508C332.067 460.545 296.712 460.447 279.503 458.862C269.651 457.954 236.407 454.579 213.164 431.766C212.612 431.224 194.622 417.313 191.734 409.861C190.636 407.028 179.802 386.18 175.719 370.226C175.035 367.555 172.509 361.553 170.926 352.256C170.124 347.546 169.553 338.401 169.185 335.607C168.904 333.478 167.812 326.89 167.106 319.734C166.287 311.424 176.168 307.327 175.839 313.768C175.336 323.615 178.526 346.57 181.187 354.613C184.47 374.864 198.928 398.534 203.275 404.309C218.241 424.19 243.719 442.404 265.097 444.611C278.678 445.754 330.424 448.959 338.357 447.429C349.595 447.781 369.802 449.509 370.434 449.588C398.38 453.057 406.099 464.803 410.474 472.031C425.522 496.895 419.828 529.525 418.917 532.975C411.377 561.525 388.158 599.493 386.697 602.347C378.538 618.284 357.348 649.526 356.066 651.767C349.231 663.717 337.48 683.179 329.618 700.939C319.939 728.406 319.01 734.41 320.724 761.307C327.192 786.089 327.703 804.666 335.946 815.961C346.485 830.402 351.732 830.636 368.621 849.043C351.029 842.376 334.151 833.841 329.078 831.026C316.846 804.033 317.299 800.837 313.988 786.716Z" fill="black"/>
<path d="M110.65 496.257C110.65 453.809 117.835 413.883 130.359 376.565C145.021 332.879 167 292.766 193.337 256.365C223.768 214.306 265.256 180.038 306.849 153.555C353.023 124.156 410.539 94.6601 484.559 87.4744C485.935 89.9828 486.978 84.9758 480.64 94.2948C474.639 96.4896 470.5 95.0478 460.002 97.2908C416.198 106.65 347.102 132.019 288.727 178.408C250.101 212.952 208.058 246.881 178.701 305.423C154.218 354.244 126.092 416.885 127.172 489.375C127.82 532.863 133.644 578.592 147.489 620.317C160.813 660.472 181.735 696.888 204.066 725.581C243.624 776.409 319.572 843.15 411.045 860.131C442.77 866.02 505.492 886.121 602.343 862.117C665.123 842.792 664.907 847.368 744.917 800.15C760.548 790.925 781.25 770.014 792.43 765.569C802.483 761.572 809.937 766.632 811.777 772.744C794.299 799.578 779.782 809.895 734.759 837.057C696.31 860.253 644.908 882.496 591.203 893.045C493.844 912.168 392.557 882.619 370.298 874.704C270.081 839.064 200.68 768.859 157.996 687.206C142.031 656.666 129.54 625.313 121.631 592.569C113.979 560.888 110.65 527.849 110.65 496.257Z" fill="black"/>
<path d="M93.8175 535.512L54.7749 542.579L56.0105 549.405L95.0531 542.337L93.8175 535.512Z" fill="#CC0D0B"/>
<path d="M91.1224 567.854C92.4996 567.548 93.5388 568.16 93.8832 569.709C94.151 570.914 93.7877 571.717 92.7548 572.489L70.5363 589.29C66.4751 591.879 64.2693 594.958 65.4682 600.352C66.7946 606.32 70.8306 608.494 75.9374 607.359L106.866 600.484L105.348 593.656L74.7066 600.466C73.3868 600.76 72.3348 600.09 72.016 598.656C71.7354 597.394 72.2581 596.495 73.0742 595.831L95.2927 579.03C99.3539 576.442 101.572 573.419 100.374 568.026C99.0344 562.001 95.0112 559.884 89.9617 561.006L58.9761 567.894L60.4811 574.665L91.1224 567.854Z" fill="#CC0D0B"/>
<path d="M112.878 623.824C110.059 615.47 104.364 613.67 98.1262 615.775C92.8909 617.542 88.0554 621.78 91.4392 631.805L94.3906 640.549C95.9509 645.172 94.1556 647.204 91.705 648.032C88.976 648.953 86.4816 647.996 85.2784 644.431L78.1349 623.267L71.563 625.486L78.6314 646.427C81.5264 655.004 87.3514 656.822 93.7005 654.679C99.1028 652.855 103.975 648.543 100.516 638.295L97.546 629.496C96.0609 625.096 97.8382 623.193 100.122 622.422C102.739 621.539 105.085 622.422 106.231 625.819L112.736 645.089L119.308 642.871L112.878 623.824Z" fill="#CC0D0B"/>
<path d="M122.341 671.814C123.367 671.816 124.003 672.244 124.378 673.107C124.754 673.969 124.635 674.726 123.914 675.425L99.4648 699.22L102.54 706.28L129.521 679.907C132.352 677.134 132.566 674.092 130.922 670.32C129.256 666.494 126.882 664.578 122.9 664.71L85.0029 666.025L88.0549 673.03L122.341 671.814Z" fill="#CC0D0B"/>
<path d="M140.127 710.388C136.318 703.628 131.028 703.101 125.907 705.986L116.689 711.18C111.568 714.065 109.278 718.864 113.087 725.624L122.407 742.165L127.682 739.193L118.362 722.652C116.688 719.681 117.612 717.609 119.763 716.397L121.709 715.301L128.952 728.155C132.703 734.812 136.933 735.735 141.901 732.936C147.124 729.993 148.668 725.547 145.061 719.146L140.127 710.388ZM128.828 711.29C130.927 710.107 133.23 710.361 134.903 713.332L139.809 722.038C141.309 724.701 140.641 726.629 138.593 727.783C136.595 728.908 134.76 728.525 133.116 725.606L125.96 712.906L128.828 711.29Z" fill="black"/>
<path d="M159.105 741.565C155.603 736.555 151.977 736.292 146.87 739.862L128.85 752.456L132.42 757.563L149.668 745.507C151.884 743.958 153.652 744.229 155.234 746.494L161.498 755.455L166.412 752.02L159.105 741.565Z" fill="black"/>
<path d="M179.748 767.413C174.453 761.036 167.26 760.286 159.209 766.969C151.159 773.653 150.574 780.862 155.869 787.239L160.036 792.259C165.293 798.59 172.524 799.386 180.574 792.703C188.625 786.019 189.172 778.765 183.915 772.433L179.748 767.413ZM178.927 775.811C182.344 779.926 181.712 783.583 176.557 787.863C171.401 792.144 167.736 792.054 164.319 787.939L160.902 783.823C157.448 779.663 158.071 776.089 163.227 771.808C168.383 767.528 172.056 767.535 175.51 771.695L178.927 775.811Z" fill="black"/>
<path d="M202.523 794.671C197.622 789.356 193.12 789.589 189.014 793.374C185.514 796.602 183.793 801.066 189.611 807.376L194.592 812.778C196.703 815.068 196.845 816.696 195.03 818.37C193.258 820.003 191.727 819.816 189.774 817.699L177.542 804.432L173.091 808.536L185.323 821.803C190.264 827.162 195.069 826.649 199.131 822.904C202.675 819.637 204.096 815.368 198.278 809.059L193.337 803.7C190.987 801.15 191.213 799.662 192.812 798.188C194.541 796.594 196.202 796.661 198.155 798.779L209.789 811.398L214.197 807.333L202.523 794.671Z" fill="black"/>
<path d="M228.723 821.986C223.201 816.963 217.361 817.531 211.349 824.14L191.019 846.49L195.628 850.683L204.013 841.465L214.188 850.72C220.276 856.257 227.504 855.998 234.544 848.258C241.585 840.518 241.16 833.298 235.072 827.761L228.723 821.986ZM215.76 828.55C219.359 824.593 222.297 824.246 226.037 827.647L230.559 831.761C234.56 835.4 234.4 839.069 229.891 844.026C225.382 848.983 221.784 849.445 217.784 845.806L208.087 836.986L215.76 828.55Z" fill="black"/>
<path d="M251.437 840.174L247.959 845.058L263.09 855.832C265.867 857.81 265.877 860.126 264.479 862.089L263.115 864.005L251.097 855.446C244.872 851.014 240.665 852.058 237.391 856.655C233.982 861.443 234.392 866.137 240.377 870.399L252.204 878.821C256.465 881.856 258.446 881.101 261.037 877.462L269.493 865.587C272.902 860.799 272.936 855.483 266.615 850.982L251.437 840.174ZM254.566 873.071L243.937 865.501C241.399 863.694 241.246 861.781 242.576 859.914C243.905 858.046 245.647 857.627 248.329 859.537L260.251 868.027L256.876 872.767C256.228 873.677 255.572 873.787 254.566 873.071Z" fill="black"/>
<path d="M292.136 868.841C285 864.626 277.975 866.348 272.654 875.357C267.332 884.365 269.215 891.349 276.351 895.564L290.117 903.696L293.196 898.483L279.936 890.65C275.28 887.9 274.661 884.325 278.069 878.555C281.477 872.786 284.937 871.552 289.593 874.303L302.853 882.135L305.902 876.973L292.136 868.841Z" fill="black"/>
<path d="M322.829 885.211C315.697 882.155 311.174 884.949 308.859 890.352L304.692 900.077C302.376 905.48 303.473 910.682 310.605 913.739L328.056 921.217L330.441 915.652L312.989 908.173C309.856 906.831 309.331 904.623 310.303 902.354L311.183 900.301L324.744 906.112C331.768 909.122 335.689 907.285 337.935 902.044C340.296 896.533 338.822 892.064 332.068 889.17L322.829 885.211ZM314.401 892.791C315.35 890.576 317.334 889.379 320.468 890.722L329.653 894.658C332.462 895.862 333.103 897.799 332.177 899.96C331.274 902.067 329.583 902.878 326.504 901.558L313.104 895.816L314.401 892.791Z" fill="black"/>
</g>
<defs>
<clipPath id="clip0_511_918">
<rect width="1024" height="1024" rx="512" fill="white"/>
</clipPath>
<clipPath id="clip1_511_918">
<rect width="1024" height="1024" fill="white"/>
</clipPath>
</defs>
</svg>
